# Blender v3.4.1 OBJ File: ''
# www.blender.org
mtllib MyShelves.mtl
o group_0_ID4
v -1.265912 0.098968 0.024024
v -1.265912 0.098968 1.160585
v -1.265912 0.170405 1.160585
v -1.265912 0.170405 0.024024
v -1.265912 0.098968 1.160585
v -0.275888 0.098968 1.160585
v -0.275888 0.170405 1.160585
v -1.265912 0.170405 1.160585
v -0.275888 0.170405 1.160585
v -0.275888 0.170405 0.024024
v -1.265912 0.170405 0.024024
v -1.265912 0.170405 1.160585
v -1.265912 0.098968 -1.112538
v -1.265912 0.170405 -1.112538
v 0.714136 0.098968 1.160585
v 0.714136 0.170405 1.160585
v 0.714136 0.170405 1.160585
v 0.714136 0.170405 0.024024
v -0.275888 0.170405 -1.112538
v -1.265912 0.170405 -1.112538
v -0.275888 0.098968 -1.112538
v -1.265912 0.098968 -1.112538
v -1.265912 0.170405 -1.112538
v -0.275888 0.170405 -1.112538
v 0.714136 0.098968 1.160585
v 0.714136 0.098968 0.024024
v 0.714136 0.170405 0.024024
v 0.714136 0.170405 1.160585
v 0.714136 0.170405 -1.112538
v 0.714136 0.098968 -1.112538
v 0.714136 0.170405 -1.112538
v 0.714136 0.098968 -1.112538
v 0.714136 0.170405 -1.112538
vt 0.914806 0.190002
vt 0.914806 0.379173
vt 0.902915 0.379173
vt 0.902915 0.190002
vt 0.813027 0.603083
vt 0.813027 0.767864
vt 0.801136 0.767864
vt 0.801136 0.603083
vt 0.165611 0.379173
vt 0.165611 0.190002
vt 0.330399 0.190002
vt 0.330391 0.379173
vt 0.914806 0.000832
vt 0.902915 0.000832
vt 0.813027 0.932645
vt 0.801136 0.932645
vt 0.000832 0.379173
vt 0.000832 0.190002
vt 0.165611 0.000832
vt 0.330399 0.000832
vt 0.826581 0.767860
vt 0.826581 0.932640
vt 0.814691 0.932640
vt 0.814691 0.767860
vt 0.914806 0.380839
vt 0.914806 0.570010
vt 0.902915 0.570010
vt 0.902915 0.380839
vt 0.000832 0.000832
vt 0.826581 0.603081
vt 0.814691 0.603081
vt 0.914806 0.759181
vt 0.902915 0.759181
vn -1.0000 0.0000 0.0000
vn 0.0000 0.0000 1.0000
vn 0.0000 1.0000 0.0000
vn 0.0000 0.0000 -1.0000
vn 1.0000 0.0000 0.0000
usemtl material
s off
f 1/1/1 2/2/1 3/3/1 4/4/1
f 5/5/2 6/6/2 7/7/2 8/8/2
f 9/9/3 10/10/3 11/11/3 12/12/3
f 13/13/1 1/1/1 4/4/1 14/14/1
f 6/6/2 15/15/2 16/16/2 7/7/2
f 10/10/3 9/9/3 17/17/3 18/18/3
f 10/10/3 19/19/3 20/20/3 11/11/3
f 21/21/4 22/22/4 23/23/4 24/24/4
f 25/25/5 26/26/5 27/27/5 28/28/5
f 19/19/3 10/10/3 18/18/3 29/29/3
f 30/30/4 21/21/4 24/24/4 31/31/4
f 26/26/5 32/32/5 33/33/5 27/27/5
o group_0.001_ID12
v -1.290228 3.608387 1.205124
v -1.290228 3.608387 1.062248
v -1.290228 1.431925 1.062248
v -1.290228 1.431925 1.205124
v -1.290228 3.608387 1.062248
v -1.268738 3.608387 1.062248
v -1.268738 1.431925 1.062248
v -1.290228 1.431925 1.062248
v -1.290228 0.000000 1.062248
v -1.290228 0.000000 1.205124
v -1.024712 3.608387 1.187905
v -1.290228 3.608387 1.205124
v -1.290228 1.431925 1.205124
v -1.024712 1.431925 1.187905
v -1.268738 0.000000 1.062248
v -1.290228 0.000000 1.062248
v -1.290228 0.000000 1.205124
v -1.024712 0.000000 1.187905
v -1.024712 3.608387 1.163760
v -1.024712 3.608387 1.187905
v -1.024712 1.431925 1.187905
v -1.024712 1.431925 1.163760
v -1.024712 0.000000 1.187905
v -1.024712 0.000000 1.163760
vt 0.824917 0.601418
vt 0.801136 0.601418
vt 0.801136 0.239164
vt 0.824917 0.239164
vt 0.999168 0.932645
vt 0.995591 0.932645
vt 0.995591 0.570391
vt 0.999168 0.570391
vt 0.801136 0.000832
vt 0.824917 0.000832
vt 0.707572 0.601418
vt 0.663286 0.601418
vt 0.663286 0.239164
vt 0.707572 0.239164
vt 0.995591 0.332059
vt 0.999168 0.332059
vt 0.663286 0.000832
vt 0.707572 0.000832
vt 0.961153 0.932645
vt 0.957134 0.932645
vt 0.957134 0.570391
vt 0.961153 0.570391
vt 0.957134 0.332059
vt 0.961153 0.332059
vn -1.0000 0.0000 0.0000
vn 0.0000 0.0000 -1.0000
vn 0.0647 0.0000 0.9979
vn 1.0000 0.0000 0.0000
usemtl material
s off
f 34/34/6 35/35/6 36/36/6 37/37/6
f 38/38/7 39/39/7 40/40/7 41/41/7
f 37/37/6 36/36/6 42/42/6 43/43/6
f 44/44/8 45/45/8 46/46/8 47/47/8
f 41/41/7 40/40/7 48/48/7 49/49/7
f 47/47/8 46/46/8 50/50/8 51/51/8
f 52/52/9 53/53/9 54/54/9 55/55/9
f 55/55/9 54/54/9 56/56/9 57/57/9
o group_0.002_ID18
v -0.275888 3.393031 -1.112538
v -1.265912 3.393031 -1.112538
v -1.265912 3.464468 -1.112538
v -0.275888 3.464468 -1.112538
v -1.265912 3.393031 -1.112538
v -1.265912 3.393031 0.024024
v -1.265912 3.464468 0.024024
v -1.265912 3.464468 -1.112538
v -0.275888 3.464468 0.024024
v -0.275888 3.464468 -1.112538
v -1.265912 3.464468 -1.112538
v -1.265912 3.464468 0.024024
v 0.714136 3.393031 -1.112538
v 0.714136 3.464468 -1.112538
v -1.265912 3.393031 1.160585
v -1.265912 3.464468 1.160585
v 0.714136 3.464468 0.024024
v 0.714136 3.464468 -1.112538
v -0.275888 3.464468 1.160585
v -1.265912 3.464468 1.160585
v 0.714136 3.393031 0.024024
v 0.714136 3.393031 -1.112538
v 0.714136 3.464468 -1.112538
v 0.714136 3.464468 0.024024
v -1.265912 3.393031 1.160585
v -0.275888 3.393031 1.160585
v -0.275888 3.464468 1.160585
v -1.265912 3.464468 1.160585
v 0.714136 3.464468 1.160585
v 0.714136 3.393031 1.160585
v 0.714136 3.464468 1.160585
v 0.714136 3.393031 1.160585
v 0.714136 3.464468 1.160585
vt 0.867249 0.767860
vt 0.867249 0.932640
vt 0.855362 0.932640
vt 0.855362 0.767860
vt 0.941925 0.380836
vt 0.941925 0.570007
vt 0.930038 0.570007
vt 0.930038 0.380836
vt 0.165611 0.570007
vt 0.165611 0.380836
vt 0.330399 0.380836
vt 0.330399 0.570007
vt 0.867249 0.603081
vt 0.855362 0.603081
vt 0.941925 0.759178
vt 0.930038 0.759178
vt 0.000832 0.570007
vt 0.000832 0.380836
vt 0.165611 0.759178
vt 0.330391 0.759178
vt 0.941925 0.190003
vt 0.941925 0.379174
vt 0.930038 0.379174
vt 0.930038 0.190003
vt 0.853699 0.603083
vt 0.853699 0.767864
vt 0.841812 0.767864
vt 0.841812 0.603083
vt 0.000832 0.759178
vt 0.941925 0.000832
vt 0.930038 0.000832
vt 0.853699 0.932645
vt 0.841812 0.932645
vn 0.0000 0.0000 -1.0000
vn -1.0000 0.0000 0.0000
vn 0.0000 1.0000 0.0000
vn 1.0000 0.0000 0.0000
vn 0.0000 0.0000 1.0000
usemtl material
s off
f 58/58/10 59/59/10 60/60/10 61/61/10
f 62/62/11 63/63/11 64/64/11 65/65/11
f 66/66/12 67/67/12 68/68/12 69/69/12
f 70/70/10 58/58/10 61/61/10 71/71/10
f 63/63/11 72/72/11 73/73/11 64/64/11
f 67/67/12 66/66/12 74/74/12 75/75/12
f 76/76/12 66/66/12 69/69/12 77/77/12
f 78/78/13 79/79/13 80/80/13 81/81/13
f 82/82/14 83/83/14 84/84/14 85/85/14
f 66/66/12 76/76/12 86/86/12 74/74/12
f 87/87/13 78/78/13 81/81/13 88/88/13
f 83/83/14 89/89/14 90/90/14 84/84/14
o group_0.003_ID24
v -0.275888 1.268426 -1.112537
v -0.275888 1.268426 0.024024
v 0.714136 1.268426 0.024024
v 0.714136 1.268426 -1.112537
v -1.265912 1.268426 -1.112537
v -1.265912 1.268426 0.024024
v -0.275888 1.268426 1.160585
v 0.714136 1.268426 1.160585
v 0.714136 1.196988 0.024024
v 0.714136 1.196988 -1.112537
v 0.714136 1.268426 -1.112537
v 0.714136 1.268426 0.024024
v 0.714136 1.196988 -1.112537
v -0.275888 1.196988 -1.112537
v -0.275888 1.268426 -1.112537
v 0.714136 1.268426 -1.112537
v -1.265912 1.196988 -1.112537
v -1.265912 1.268426 -1.112537
v -1.265912 1.196988 -1.112537
v -1.265912 1.196988 0.024024
v -1.265912 1.268426 0.024024
v -1.265912 1.268426 -1.112537
v -1.265912 1.268426 1.160585
v -0.275888 1.196988 1.160585
v 0.714136 1.196988 1.160585
v 0.714136 1.268426 1.160585
v -0.275888 1.268426 1.160585
v 0.714136 1.196988 1.160585
v 0.714136 1.268426 1.160585
v -1.265912 1.196988 1.160585
v -1.265912 1.268426 1.160585
v -1.265912 1.196988 1.160585
v -1.265912 1.268426 1.160585
vt 0.496841 0.380836
vt 0.496841 0.570007
vt 0.332062 0.570007
vt 0.332062 0.380836
vt 0.661629 0.380836
vt 0.661629 0.570007
vt 0.496841 0.759178
vt 0.332062 0.759178
vt 0.928360 0.570010
vt 0.928360 0.759181
vt 0.916470 0.759181
vt 0.916470 0.570010
vt 0.840137 0.603081
vt 0.840137 0.767860
vt 0.828247 0.767860
vt 0.828247 0.603081
vt 0.840137 0.932640
vt 0.828247 0.932640
vt 0.955471 0.380836
vt 0.955471 0.570007
vt 0.943581 0.570007
vt 0.943581 0.380836
vt 0.661621 0.759178
vt 0.880798 0.767864
vt 0.880798 0.932645
vt 0.868908 0.932645
vt 0.868908 0.767864
vt 0.928360 0.380839
vt 0.916470 0.380839
vt 0.955471 0.759178
vt 0.943581 0.759178
vt 0.880798 0.603083
vt 0.868908 0.603083
vn 0.0000 1.0000 0.0000
vn 1.0000 0.0000 0.0000
vn 0.0000 0.0000 -1.0000
vn -1.0000 0.0000 0.0000
vn 0.0000 0.0000 1.0000
usemtl material
s off
f 91/91/15 92/92/15 93/93/15 94/94/15
f 92/92/15 91/91/15 95/95/15 96/96/15
f 92/92/15 97/97/15 98/98/15 93/93/15
f 99/99/16 100/100/16 101/101/16 102/102/16
f 103/103/17 104/104/17 105/105/17 106/106/17
f 104/104/17 107/107/17 108/108/17 105/105/17
f 109/109/18 110/110/18 111/111/18 112/112/18
f 97/97/15 92/92/15 96/96/15 113/113/15
f 114/114/19 115/115/19 116/116/19 117/117/19
f 118/118/16 99/99/16 102/102/16 119/119/16
f 110/110/18 120/120/18 121/121/18 111/111/18
f 122/122/19 114/114/19 117/117/19 123/123/19
o group_0.004_ID30
v 0.472936 3.608387 -1.115713
v 0.472936 3.608387 -1.139858
v 0.472936 1.431925 -1.139858
v 0.472936 1.431925 -1.115713
v 0.472936 3.608387 -1.139858
v 0.738451 3.608387 -1.157076
v 0.738451 1.431925 -1.157076
v 0.472936 1.431925 -1.139858
v 0.472936 0.000000 -1.139858
v 0.472936 0.000000 -1.115713
v 0.738451 3.608387 -1.157076
v 0.738451 3.608387 -1.014202
v 0.738451 1.431925 -1.014202
v 0.738451 1.431925 -1.157076
v 0.472936 1.431925 -1.139858
v 0.738451 1.431925 -1.157076
v 0.738451 0.000000 -1.157076
v 0.472936 0.000000 -1.139858
v 0.738451 3.608387 -1.014202
v 0.716961 3.608387 -1.014202
v 0.716961 1.431925 -1.014202
v 0.738451 1.431925 -1.014202
v 0.738451 0.000000 -1.014202
v 0.738451 0.000000 -1.157076
v 0.716961 0.000000 -1.014202
v 0.738451 0.000000 -1.014202
vt 0.972519 0.932645
vt 0.968498 0.932645
vt 0.968498 0.570391
vt 0.972519 0.570391
vt 0.753525 0.727005
vt 0.709236 0.727005
vt 0.709236 0.364750
vt 0.753525 0.364750
vt 0.968498 0.332059
vt 0.972519 0.332059
vt 0.875809 0.601418
vt 0.852028 0.601418
vt 0.852028 0.239164
vt 0.875809 0.239164
vt 0.707573 0.841415
vt 0.663284 0.841415
vt 0.663284 0.603083
vt 0.707573 0.603083
vt 0.983444 0.932645
vt 0.979866 0.932645
vt 0.979866 0.570391
vt 0.983444 0.570391
vt 0.852028 0.000832
vt 0.875809 0.000832
vt 0.979866 0.332059
vt 0.983444 0.332059
vn -1.0000 0.0000 0.0000
vn -0.0647 0.0000 -0.9979
vn 1.0000 0.0000 0.0000
vn 0.0000 0.0000 1.0000
usemtl material
s off
f 124/124/20 125/125/20 126/126/20 127/127/20
f 128/128/21 129/129/21 130/130/21 131/131/21
f 127/127/20 126/126/20 132/132/20 133/133/20
f 134/134/22 135/135/22 136/136/22 137/137/22
f 138/138/21 139/139/21 140/140/21 141/141/21
f 142/142/23 143/143/23 144/144/23 145/145/23
f 137/137/22 136/136/22 146/146/22 147/147/22
f 145/145/23 144/144/23 148/148/23 149/149/23
o group_0.005_ID36
v 0.714136 2.295009 -1.112538
v -0.275888 2.295009 -1.112538
v -0.275888 2.366447 -1.112538
v 0.714136 2.366447 -1.112538
v -1.265912 2.295009 -1.112538
v -1.265912 2.366447 -1.112538
v -0.275888 2.366447 -1.112538
v -0.275888 2.366447 0.024024
v 0.714136 2.366447 0.024024
v 0.714136 2.366447 -1.112538
v 0.714136 2.295009 0.024024
v 0.714136 2.295009 -1.112538
v 0.714136 2.366447 -1.112538
v 0.714136 2.366447 0.024024
v -1.265912 2.295009 -1.112538
v -1.265912 2.295009 0.024024
v -1.265912 2.366447 0.024024
v -1.265912 2.366447 -1.112538
v -1.265912 2.366447 -1.112538
v -1.265912 2.366447 0.024024
v -0.275888 2.366447 1.160585
v 0.714136 2.366447 1.160585
v 0.714136 2.295009 1.160585
v 0.714136 2.366447 1.160585
v -1.265912 2.295009 1.160585
v -1.265912 2.366447 1.160585
v -1.265912 2.366447 1.160585
v -0.275888 2.295009 1.160585
v 0.714136 2.295009 1.160585
v 0.714136 2.366447 1.160585
v -0.275888 2.366447 1.160585
v -1.265912 2.295009 1.160585
v -1.265912 2.366447 1.160585
vt 0.894356 0.603081
vt 0.894356 0.767860
vt 0.882462 0.767860
vt 0.882462 0.603081
vt 0.894356 0.932640
vt 0.882462 0.932640
vt 0.496841 0.000832
vt 0.496841 0.190002
vt 0.332062 0.190002
vt 0.332062 0.000832
vt 0.928368 0.190003
vt 0.928368 0.379175
vt 0.916473 0.379175
vt 0.916473 0.190003
vt 0.955475 0.000832
vt 0.955475 0.190002
vt 0.943581 0.190002
vt 0.943581 0.000832
vt 0.661629 0.000832
vt 0.661629 0.190002
vt 0.496841 0.379173
vt 0.332062 0.379173
vt 0.928368 0.000832
vt 0.916473 0.000832
vt 0.955475 0.379173
vt 0.943581 0.379173
vt 0.661621 0.379173
vt 0.969025 0.165613
vt 0.969025 0.330395
vt 0.957130 0.330395
vt 0.957130 0.165613
vt 0.969025 0.000832
vt 0.957130 0.000832
vn 0.0000 0.0000 -1.0000
vn 0.0000 1.0000 0.0000
vn 1.0000 0.0000 0.0000
vn -1.0000 0.0000 0.0000
vn 0.0000 0.0000 1.0000
usemtl material
s off
f 150/150/24 151/151/24 152/152/24 153/153/24
f 151/151/24 154/154/24 155/155/24 152/152/24
f 156/156/25 157/157/25 158/158/25 159/159/25
f 160/160/26 161/161/26 162/162/26 163/163/26
f 164/164/27 165/165/27 166/166/27 167/167/27
f 157/157/25 156/156/25 168/168/25 169/169/25
f 157/157/25 170/170/25 171/171/25 158/158/25
f 172/172/26 160/160/26 163/163/26 173/173/26
f 165/165/27 174/174/27 175/175/27 166/166/27
f 170/170/25 157/157/25 169/169/25 176/176/25
f 177/177/28 178/178/28 179/179/28 180/180/28
f 181/181/28 177/177/28 180/180/28 182/182/28
o group_0.006_ID42
v 0.472936 1.431925 1.187905
v 0.472936 1.431925 1.163760
v 0.472936 0.000000 1.163760
v 0.472936 0.000000 1.187905
v 0.472936 3.608387 1.187905
v 0.472936 3.608387 1.163760
v 0.738451 1.431925 1.205124
v 0.472936 1.431925 1.187905
v 0.472936 0.000000 1.187905
v 0.738451 0.000000 1.205124
v 0.738451 3.608387 1.205124
v 0.472936 3.608387 1.187905
v 0.472936 1.431925 1.187905
v 0.738451 1.431925 1.205124
v 0.738451 1.431925 1.062248
v 0.738451 1.431925 1.205124
v 0.738451 0.000000 1.205124
v 0.738451 0.000000 1.062248
v 0.738451 3.608387 1.062248
v 0.738451 3.608387 1.205124
v 0.716961 1.431925 1.062248
v 0.738451 1.431925 1.062248
v 0.738451 0.000000 1.062248
v 0.716961 0.000000 1.062248
v 0.716961 3.608387 1.062248
v 0.738451 3.608387 1.062248
vt 0.966836 0.570391
vt 0.962817 0.570391
vt 0.962817 0.332059
vt 0.966836 0.332059
vt 0.966836 0.932645
vt 0.962817 0.932645
vt 0.799477 0.603083
vt 0.755188 0.603083
vt 0.755188 0.364751
vt 0.799477 0.364751
vt 0.799477 0.363087
vt 0.755188 0.363087
vt 0.755188 0.000832
vt 0.799477 0.000832
vt 0.850362 0.239164
vt 0.826581 0.239164
vt 0.826581 0.000832
vt 0.850362 0.000832
vt 0.850362 0.601418
vt 0.826581 0.601418
vt 0.988686 0.570391
vt 0.985107 0.570391
vt 0.985107 0.332059
vt 0.988686 0.332059
vt 0.988686 0.932645
vt 0.985107 0.932645
vn -1.0000 0.0000 0.0000
vn -0.0647 0.0000 0.9979
vn 1.0000 0.0000 0.0000
vn 0.0000 0.0000 -1.0000
usemtl material
s off
f 183/183/29 184/184/29 185/185/29 186/186/29
f 187/187/29 188/188/29 184/184/29 183/183/29
f 189/189/30 190/190/30 191/191/30 192/192/30
f 193/193/30 194/194/30 195/195/30 196/196/30
f 197/197/31 198/198/31 199/199/31 200/200/31
f 201/201/31 202/202/31 198/198/31 197/197/31
f 203/203/32 204/204/32 205/205/32 206/206/32
f 207/207/32 208/208/32 204/204/32 203/203/32
o group_0.007_ID48
v -1.024712 1.431925 -1.139858
v -1.024712 1.431925 -1.115713
v -1.024712 0.000000 -1.115713
v -1.024712 0.000000 -1.139858
v -1.024712 3.608387 -1.139858
v -1.024712 3.608387 -1.115713
v -1.290228 1.431925 -1.157076
v -1.024712 1.431925 -1.139858
v -1.024712 0.000000 -1.139858
v -1.290228 0.000000 -1.157076
v -1.290228 3.608387 -1.157076
v -1.024712 3.608387 -1.139858
v -1.024712 1.431925 -1.139858
v -1.290228 1.431925 -1.157076
v -1.290228 1.431925 -1.014202
v -1.290228 1.431925 -1.157076
v -1.290228 0.000000 -1.157076
v -1.290228 0.000000 -1.014202
v -1.290228 3.608387 -1.014202
v -1.290228 3.608387 -1.157076
v -1.268738 1.431925 -1.014202
v -1.290228 1.431925 -1.014202
v -1.290228 0.000000 -1.014202
v -1.268738 0.000000 -1.014202
v -1.268738 3.608387 -1.014202
v -1.290228 3.608387 -1.014202
vt 0.978203 0.570391
vt 0.974182 0.570391
vt 0.974182 0.332059
vt 0.978203 0.332059
vt 0.978203 0.932645
vt 0.974182 0.932645
vt 0.799472 0.843079
vt 0.755186 0.843079
vt 0.755186 0.604747
vt 0.799472 0.604747
vt 0.753522 0.363087
vt 0.709236 0.363087
vt 0.709236 0.000832
vt 0.753522 0.000832
vt 0.901253 0.239164
vt 0.877472 0.239164
vt 0.877472 0.000832
vt 0.901253 0.000832
vt 0.901253 0.601418
vt 0.877472 0.601418
vt 0.993927 0.570391
vt 0.990350 0.570391
vt 0.990350 0.332059
vt 0.993927 0.332059
vt 0.993927 0.932645
vt 0.990350 0.932645
vn 1.0000 0.0000 0.0000
vn 0.0647 0.0000 -0.9979
vn -1.0000 0.0000 0.0000
vn 0.0000 0.0000 1.0000
usemtl material
s off
f 209/209/33 210/210/33 211/211/33 212/212/33
f 213/213/33 214/214/33 210/210/33 209/209/33
f 215/215/34 216/216/34 217/217/34 218/218/34
f 219/219/34 220/220/34 221/221/34 222/222/34
f 223/223/35 224/224/35 225/225/35 226/226/35
f 227/227/35 228/228/35 224/224/35 223/223/35
f 229/229/36 230/230/36 231/231/36 232/232/36
f 233/233/36 234/234/36 230/230/36 229/229/36
